<svg width="204" height="30" viewBox="0 0 204 30" fill="none" xmlns="http://www.w3.org/2000/svg">
<g clip-path="url(#clip0_141_59)">
<path d="M25.8735 8.09021H33.577V10.7054H31.0376V22.0284H28.3466V10.7054H25.8735V8.09021Z" fill="white"/>
<path d="M42.1481 11.7192H44.7253V22.0283H42.1481V20.9387C41.6426 21.4187 41.1341 21.7662 40.6225 21.9809C40.1171 22.1894 39.5676 22.2937 38.9738 22.2937C37.641 22.2937 36.4881 21.7788 35.5153 20.7492C34.5425 19.7132 34.0562 18.4277 34.0562 16.8927C34.0562 15.3009 34.5267 13.9964 35.468 12.9794C36.4092 11.9624 37.5525 11.4539 38.898 11.4539C39.517 11.4539 40.0982 11.5708 40.6414 11.8045C41.1847 12.0382 41.6869 12.3888 42.1481 12.8563V11.7192ZM39.4286 13.8416C38.6263 13.8416 37.96 14.1259 37.4293 14.6944C36.8987 15.2566 36.6334 15.9799 36.6334 16.8643C36.6334 17.7549 36.9018 18.4877 37.4388 19.0626C37.982 19.6374 38.6485 19.9248 39.4381 19.9248C40.253 19.9248 40.9289 19.6437 41.4658 19.0815C42.0027 18.5129 42.2712 17.7708 42.2712 16.8548C42.2712 15.9578 42.0027 15.2314 41.4658 14.6755C40.9289 14.1196 40.2498 13.8416 39.4286 13.8416Z" fill="white"/>
<path d="M56.8497 13.8038L54.6989 14.9881C54.2946 14.565 53.8934 14.2713 53.4954 14.107C53.1038 13.9428 52.6427 13.8606 52.1121 13.8606C51.1456 13.8606 50.3623 14.1512 49.7622 14.7323C49.1685 15.3071 48.8715 16.0463 48.8715 16.9496C48.8715 17.8276 49.159 18.5446 49.7338 19.1004C50.3086 19.6564 51.0635 19.9343 51.9984 19.9343C53.1544 19.9343 54.0546 19.5395 54.6989 18.7499L56.736 20.1427C55.6306 21.5767 54.0703 22.2937 52.0553 22.2937C50.2423 22.2937 48.821 21.7567 47.7913 20.6829C46.768 19.6089 46.2563 18.3519 46.2563 16.9116C46.2563 15.9136 46.5059 14.9945 47.0049 14.1543C47.504 13.3142 48.1988 12.6541 49.0895 12.174C49.9865 11.694 50.9877 11.4539 52.0931 11.4539C53.1164 11.4539 54.0356 11.6592 54.8504 12.0698C55.6654 12.4741 56.3317 13.0521 56.8497 13.8038Z" fill="white"/>
<path d="M58.9208 7.91956H61.498V11.7191H63.033V13.9459H61.498V22.0283H58.9208V13.9459H57.5942V11.7191H58.9208V7.91956Z" fill="white"/>
<path d="M69.0889 22.0284V8.09021H71.9788C74.0633 8.09021 75.5765 8.25761 76.5175 8.5924C77.8695 9.0662 78.9238 9.88737 79.682 11.056C80.4463 12.2246 80.8285 13.6175 80.8285 15.2346C80.8285 16.6306 80.5254 17.8593 79.9192 18.9205C79.3191 19.9817 78.5355 20.765 77.5691 21.2704C76.6088 21.7757 75.2603 22.0284 73.5233 22.0284H69.0889ZM70.4249 20.7113H72.0357C73.9623 20.7113 75.2981 20.5913 76.0439 20.3513C77.092 20.0101 77.917 19.3974 78.517 18.513C79.1171 17.6223 79.4167 16.5358 79.4167 15.2535C79.4167 13.908 79.0916 12.7584 78.4406 11.8045C77.7905 10.8507 76.8838 10.1969 75.7215 9.8431C74.8498 9.57786 73.4128 9.4452 71.4103 9.4452H70.4249V20.7113Z" fill="white"/>
<path d="M87.2204 11.4539C88.8062 11.4539 90.1196 12.0287 91.1625 13.1784C92.1095 14.227 92.5831 15.4683 92.5831 16.9022C92.5831 18.3424 92.0814 19.6027 91.0772 20.6829C90.0792 21.7567 88.793 22.2937 87.2204 22.2937C85.6408 22.2937 84.3494 21.7567 83.3452 20.6829C82.3472 19.6027 81.8481 18.3424 81.8481 16.9022C81.8481 15.4746 82.3217 14.2365 83.2696 13.1878C84.3116 12.0319 85.6285 11.4539 87.2204 11.4539ZM87.2204 12.752C86.1214 12.752 85.1769 13.1595 84.3871 13.9743C83.5973 14.7892 83.2029 15.7746 83.2029 16.9306C83.2029 17.676 83.383 18.3709 83.7432 19.0152C84.1034 19.6595 84.5892 20.1585 85.2024 20.5122C85.8148 20.8597 86.4877 21.0334 87.2204 21.0334C87.9531 21.0334 88.6261 20.8597 89.2384 20.5122C89.8517 20.1585 90.3375 19.6595 90.6977 19.0152C91.0579 18.3709 91.238 17.676 91.238 16.9306C91.238 15.7746 90.84 14.7892 90.0441 13.9743C89.2543 13.1595 88.3133 12.752 87.2204 12.752Z" fill="white"/>
<path d="M104.092 13.8606L103.04 14.5144C102.131 13.3079 100.89 12.7046 99.3162 12.7046C98.0599 12.7046 97.0144 13.1089 96.1807 13.9175C95.3531 14.726 94.9393 15.7083 94.9393 16.8643C94.9393 17.616 95.1282 18.3234 95.5077 18.9867C95.8925 19.65 96.417 20.1649 97.0803 20.5312C97.7497 20.8976 98.4983 21.0808 99.3259 21.0808C100.842 21.0808 102.08 20.4775 103.04 19.271L104.092 19.9627C103.599 20.7017 102.936 21.2766 102.102 21.6872C101.274 22.0915 100.331 22.2937 99.2696 22.2937C97.639 22.2937 96.2879 21.7757 95.2134 20.7397C94.1398 19.7037 93.603 18.4435 93.603 16.9591C93.603 15.961 93.8525 15.0356 94.3515 14.1828C94.8567 13.3237 95.549 12.6541 96.4267 12.174C97.3043 11.694 98.2865 11.4539 99.3733 11.4539C100.056 11.4539 100.713 11.5581 101.345 11.7666C101.983 11.975 102.522 12.2467 102.965 12.5815C103.407 12.9163 103.783 13.3426 104.092 13.8606Z" fill="white"/>
<path d="M105.51 11.7191H106.846V16.5326C106.846 17.7075 106.909 18.516 107.035 18.9583C107.225 19.59 107.585 20.089 108.116 20.4553C108.653 20.8218 109.291 21.005 110.029 21.005C110.769 21.005 111.394 20.828 111.906 20.4743C112.424 20.1143 112.781 19.6437 112.976 19.0625C113.109 18.6645 113.176 17.8212 113.176 16.5326V11.7191H114.53V16.779C114.53 18.2002 114.363 19.271 114.029 19.991C113.7 20.7112 113.201 21.2765 112.532 21.6871C111.868 22.0915 111.035 22.2936 110.029 22.2936C109.025 22.2936 108.185 22.0915 107.509 21.6871C106.839 21.2765 106.338 20.708 106.003 19.9816C105.675 19.2488 105.51 18.1497 105.51 16.6842V11.7191Z" fill="white"/>
<path d="M116.507 11.7192H117.824V13.5006C118.285 12.8436 118.759 12.3635 119.245 12.0603C119.915 11.656 120.619 11.4539 121.358 11.4539C121.857 11.4539 122.331 11.5518 122.78 11.7476C123.228 11.9435 123.594 12.2056 123.879 12.5341C124.163 12.8563 124.409 13.3205 124.618 13.927C125.06 13.1183 125.613 12.5056 126.276 12.0888C126.94 11.6655 127.653 11.4539 128.417 11.4539C129.131 11.4539 129.76 11.634 130.303 11.994C130.853 12.354 131.26 12.8563 131.526 13.5006C131.791 14.1449 131.924 15.1113 131.924 16.4V22.0283H130.568V16.4C130.568 15.2946 130.49 14.5365 130.332 14.1259C130.173 13.709 129.902 13.3743 129.516 13.1215C129.138 12.8688 128.683 12.7425 128.152 12.7425C127.508 12.7425 126.917 12.932 126.38 13.311C125.849 13.6901 125.461 14.1954 125.215 14.8271C124.968 15.4588 124.845 16.5137 124.845 17.9919V22.0283H123.528V16.7506C123.528 15.5061 123.449 14.6628 123.291 14.2207C123.14 13.7722 122.871 13.4153 122.486 13.15C122.101 12.8783 121.643 12.7425 121.112 12.7425C120.499 12.7425 119.924 12.9288 119.388 13.3016C118.857 13.668 118.462 14.1638 118.203 14.7892C117.95 15.4146 117.824 16.3716 117.824 17.6602V22.0283H116.507V11.7192Z" fill="white"/>
<path d="M142.437 18.6077L143.556 19.1952C143.189 19.9154 142.766 20.4965 142.285 20.9387C141.805 21.3809 141.265 21.7188 140.665 21.9525C140.065 22.1799 139.386 22.2937 138.628 22.2937C136.948 22.2937 135.634 21.7441 134.687 20.6449C133.739 19.5395 133.265 18.2919 133.265 16.9022C133.265 15.5946 133.666 14.4291 134.469 13.4058C135.485 12.1045 136.847 11.4539 138.552 11.4539C140.308 11.4539 141.711 12.1203 142.76 13.4532C143.505 14.3944 143.884 15.5693 143.896 16.978H134.63C134.655 18.1782 135.037 19.1636 135.776 19.9343C136.515 20.6986 137.428 21.0808 138.514 21.0808C139.039 21.0808 139.547 20.9892 140.04 20.806C140.539 20.6229 140.962 20.3796 141.31 20.0764C141.657 19.7732 142.033 19.2836 142.437 18.6077ZM142.437 15.8315C142.261 15.124 142.001 14.5586 141.661 14.1354C141.326 13.7122 140.88 13.3711 140.324 13.1121C139.768 12.8531 139.184 12.7236 138.572 12.7236C137.56 12.7236 136.692 13.0489 135.966 13.6995C135.435 14.1733 135.034 14.884 134.762 15.8315H142.437Z" fill="white"/>
<path d="M145.408 11.7192H146.735V13.5669C147.265 12.8594 147.853 12.332 148.497 11.9845C149.142 11.6308 149.843 11.4539 150.601 11.4539C151.372 11.4539 152.054 11.6497 152.647 12.0413C153.247 12.433 153.69 12.9605 153.974 13.6238C154.259 14.287 154.4 15.3198 154.4 16.7221V22.0283H153.083V17.1106C153.083 15.9231 153.033 15.1303 152.932 14.7323C152.774 14.0501 152.477 13.5385 152.041 13.1973C151.605 12.8499 151.037 12.6762 150.336 12.6762C149.533 12.6762 148.813 12.9415 148.176 13.4721C147.544 14.0028 147.127 14.6597 146.925 15.443C146.798 15.9546 146.735 16.8896 146.735 18.2477V22.0283H145.408V11.7192Z" fill="white"/>
<path d="M157.438 7.89124H158.774V11.7192H160.878V12.8563H158.774V22.0284H157.438V12.8563H155.628V11.7192H157.438V7.89124Z" fill="white"/>
<path d="M172.159 11.7192V22.0283H170.852V20.2564C170.296 20.9324 169.67 21.4409 168.975 21.782C168.287 22.1231 167.532 22.2937 166.711 22.2937C165.252 22.2937 164.004 21.7662 162.968 20.7112C161.938 19.65 161.423 18.3614 161.423 16.8453C161.423 15.3609 161.945 14.0912 162.987 13.0363C164.029 11.9813 165.284 11.4539 166.749 11.4539C167.595 11.4539 168.359 11.634 169.042 11.994C169.731 12.354 170.334 12.8941 170.852 13.6143V11.7192H172.159ZM166.853 12.733C166.114 12.733 165.432 12.9163 164.807 13.2826C164.181 13.6427 163.682 14.1512 163.31 14.8081C162.943 15.4651 162.76 16.1599 162.76 16.8927C162.76 17.6191 162.946 18.314 163.319 18.9773C163.692 19.6406 164.191 20.1585 164.816 20.5312C165.448 20.8976 166.124 21.0808 166.844 21.0808C167.57 21.0808 168.258 20.8976 168.909 20.5312C169.56 20.1649 170.059 19.6689 170.406 19.0436C170.76 18.4182 170.937 17.7139 170.937 16.9306C170.937 15.7368 170.542 14.7386 169.753 13.9364C168.969 13.1342 168.003 12.733 166.853 12.733Z" fill="white"/>
<path d="M175.339 7.89124H176.674V11.7192H178.779V12.8563H176.674V22.0284H175.339V12.8563H173.529V11.7192H175.339V7.89124Z" fill="white"/>
<path d="M180.253 7.47424C180.556 7.47424 180.815 7.58163 181.03 7.7964C181.245 8.01117 181.352 8.27017 181.352 8.57338C181.352 8.8703 181.245 9.12613 181.03 9.34085C180.815 9.55565 180.556 9.66301 180.253 9.66301C179.956 9.66301 179.7 9.55565 179.485 9.34085C179.271 9.12613 179.164 8.8703 179.164 8.57338C179.164 8.27017 179.271 8.01117 179.485 7.7964C179.7 7.58163 179.956 7.47424 180.253 7.47424ZM179.59 11.7191H180.926V22.0283H179.59V11.7191Z" fill="white"/>
<path d="M187.583 11.4539C189.169 11.4539 190.483 12.0287 191.525 13.1784C192.473 14.227 192.946 15.4683 192.946 16.9022C192.946 18.3424 192.444 19.6027 191.44 20.6829C190.442 21.7567 189.156 22.2937 187.583 22.2937C186.004 22.2937 184.712 21.7567 183.707 20.6829C182.709 19.6027 182.21 18.3424 182.21 16.9022C182.21 15.4746 182.684 14.2365 183.632 13.1878C184.674 12.0319 185.991 11.4539 187.583 11.4539ZM187.583 12.752C186.484 12.752 185.539 13.1595 184.75 13.9743C183.961 14.7892 183.565 15.7746 183.565 16.9306C183.565 17.676 183.745 18.3709 184.105 19.0152C184.466 19.6595 184.952 20.1585 185.565 20.5122C186.178 20.8597 186.85 21.0334 187.583 21.0334C188.315 21.0334 188.988 20.8597 189.602 20.5122C190.214 20.1585 190.701 19.6595 191.061 19.0152C191.42 18.3709 191.6 17.676 191.6 16.9306C191.6 15.7746 191.202 14.7892 190.406 13.9743C189.617 13.1595 188.676 12.752 187.583 12.752Z" fill="white"/>
<path d="M194.448 11.7192H195.775V13.5669C196.305 12.8594 196.893 12.332 197.537 11.9845C198.182 11.6308 198.883 11.4539 199.641 11.4539C200.412 11.4539 201.094 11.6497 201.687 12.0413C202.287 12.433 202.73 12.9605 203.014 13.6238C203.299 14.287 203.441 15.3198 203.441 16.7221V22.0283H202.123V17.1106C202.123 15.9231 202.073 15.1303 201.972 14.7323C201.814 14.0501 201.517 13.5385 201.081 13.1973C200.645 12.8499 200.077 12.6762 199.376 12.6762C198.574 12.6762 197.853 12.9415 197.216 13.4721C196.584 14.0028 196.167 14.6597 195.965 15.443C195.838 15.9546 195.775 16.8896 195.775 18.2477V22.0283H194.448V11.7192Z" fill="white"/>
<path d="M16.3796 6.84282L10.847 12.9484L17.1868 15.6733L2.36399 23.7738C1.96577 23.4722 1.58872 23.144 1.23546 22.792L6.84085 16.6061L0.823242 14.2034L15.2372 5.93823C15.9298 6.41999 15.9298 6.41999 16.3796 6.84282Z" fill="white"/>
</g>
<defs>
<clipPath id="clip0_141_59">
<rect width="204" height="30" fill="white"/>
</clipPath>
</defs>
</svg>
